<?xml version="1.0" encoding="utf-8"?>
<!-- Generator: Adobe Illustrator 25.4.1, SVG Export Plug-In . SVG Version: 6.00 Build 0)  -->
<svg version="1.1" id="Calque_1" xmlns="http://www.w3.org/2000/svg" xmlns:xlink="http://www.w3.org/1999/xlink" x="0px" y="0px"
	 viewBox="0 0 615 589" style="enable-background:new 0 0 615 589;" xml:space="preserve">
<style type="text/css">
	.st0{fill:#496CB8;}
	.st1{fill:#FFFFFF;}
</style>
<g>
	<path class="st0" d="M278.93,579.14c-27.6,0-56.67-12.95-86.43-38.48c-26.61-22.84-53.64-56.03-78.16-95.98
		c-46.15-75.2-80.83-170.15-88.36-241.9C18.18,128.4,27,79.94,53.73,50.25C75.64,25.93,110.69,14.1,160.89,14.1
		c16.61,0,35.4,1.31,55.87,3.88c94.04,11.83,270.19,57.6,333.92,154.09c24.19,36.62,30.04,77.62,17.4,121.88
		c-16.39,57.38-55.18,125.8-101.25,178.57C426.58,518.63,362.17,574.53,283.89,579C282.25,579.1,280.58,579.14,278.93,579.14z"/>
	<path d="M160.89,16.1c16.52,0,35.23,1.3,55.61,3.86c20.96,2.64,95.49,13.6,174.3,43.88c35.07,13.47,65.76,28.84,91.23,45.66
		c29.33,19.37,51.86,40.79,66.97,63.67c11.45,17.34,18.82,35.82,21.89,54.94c3.32,20.66,1.73,42.62-4.75,65.29
		c-7.59,26.58-20.46,56.58-37.21,86.77c-18.09,32.6-40.09,64.08-63.62,91.03c-26.69,30.57-54.9,55.1-83.86,72.9
		c-32.5,19.98-65.37,31.05-97.7,32.9c-1.6,0.09-3.23,0.14-4.84,0.14c-27.1,0-55.74-12.78-85.13-38
		c-26.46-22.7-53.34-55.73-77.75-95.51c-22.82-37.18-43.15-79.56-58.8-122.56c-15.48-42.55-25.61-83.52-29.28-118.5
		c-3.89-37.09-3.57-67.29,0.97-92.32c4.52-24.87,13.11-44.06,26.26-58.67c10.95-12.15,24.84-20.92,42.47-26.81
		C115.18,18.94,135.85,16.1,160.89,16.1L160.89,16.1 M160.89,12.1C51.58,12.11,9.72,66.87,24,203
		c15.01,143.1,136.39,378.14,254.93,378.14c1.69,0,3.38-0.05,5.07-0.14c140-8,256.23-182.27,286-286.5
		C623.95,105.59,332.71,30.56,217,16C196.62,13.44,177.94,12.1,160.89,12.1L160.89,12.1z"/>
</g>
<g>
	<g>
		<path class="st1" d="M171.83,458.5c-7.35,0-13.33-5.98-13.33-13.33V139c0-7.35,5.98-13.33,13.33-13.33H397
			c7.35,0,13.33,5.98,13.33,13.33v306.17c0,7.35-5.98,13.33-13.33,13.33H171.83z"/>
		<path d="M397,129.17c5.42,0,9.83,4.41,9.83,9.83v306.17c0,5.42-4.41,9.83-9.83,9.83H171.83c-5.42,0-9.83-4.41-9.83-9.83V139
			c0-5.42,4.41-9.83,9.83-9.83H397 M397,122.17H171.83c-9.3,0-16.83,7.54-16.83,16.83v306.17c0,9.3,7.54,16.83,16.83,16.83H397
			c9.3,0,16.83-7.54,16.83-16.83V139C413.83,129.7,406.3,122.17,397,122.17L397,122.17z"/>
	</g>
	<g>
		<ellipse cx="284" cy="225.5" rx="67.5" ry="68"/>
		<path d="M284,161c35.29,0,64,28.93,64,64.5S319.29,290,284,290s-64-28.93-64-64.5S248.71,161,284,161 M284,154
			c-39.21,0-71,32.01-71,71.5s31.79,71.5,71,71.5s71-32.01,71-71.5S323.21,154,284,154L284,154z"/>
	</g>
	<g>
		<ellipse cx="283.5" cy="373" rx="21" ry="21.5"/>
		<path d="M283.5,355c9.65,0,17.5,8.07,17.5,18s-7.85,18-17.5,18s-17.5-8.07-17.5-18S273.85,355,283.5,355 M283.5,348
			c-13.53,0-24.5,11.19-24.5,25s10.97,25,24.5,25s24.5-11.19,24.5-25S297.03,348,283.5,348L283.5,348z"/>
	</g>
</g>
<g>
	<ellipse cx="284.5" cy="225" rx="51" ry="50.5"/>
	<path class="st1" d="M284.5,179c25.64,0,46.5,20.64,46.5,46s-20.86,46-46.5,46S238,250.36,238,225S258.86,179,284.5,179 M284.5,170
		c-30.65,0-55.5,24.62-55.5,55s24.85,55,55.5,55s55.5-24.62,55.5-55S315.15,170,284.5,170L284.5,170z"/>
</g>
</svg>
